<?xml version="1.0" encoding="utf-8"?>
<svg xmlns="http://www.w3.org/2000/svg" viewBox="0 0 205 30" xmlns:bx="https://boxy-svg.com">
  <path d="M 3.85 24.392 L 3.85 10.788 L 6.037 10.788 L 6.324 11.663 C 7.163 11.244 7.865 10.96 8.43 10.809 C 8.995 10.658 9.606 10.583 10.262 10.583 C 10.918 10.583 11.529 10.693 12.094 10.912 C 12.66 11.131 13.152 11.554 13.57 12.183 L 12.955 12.142 C 13.785 11.604 14.621 11.21 15.464 10.959 C 16.308 10.708 17.107 10.583 17.863 10.583 C 18.766 10.583 19.532 10.754 20.16 11.096 C 20.79 11.438 21.266 11.96 21.589 12.662 C 21.913 13.363 22.074 14.252 22.074 15.328 L 22.074 24.392 L 19.408 24.392 L 19.408 15.642 C 19.408 14.649 19.26 13.933 18.964 13.496 C 18.668 13.058 18.142 12.839 17.385 12.839 C 16.857 12.839 16.287 12.928 15.676 13.106 C 15.066 13.283 14.414 13.618 13.721 14.111 L 13.858 12.812 C 13.995 13.067 14.102 13.443 14.179 13.94 C 14.257 14.437 14.295 14.899 14.295 15.328 L 14.295 24.392 L 11.629 24.392 L 11.629 15.642 C 11.629 14.649 11.481 13.933 11.185 13.496 C 10.889 13.058 10.367 12.839 9.619 12.839 C 9.091 12.839 8.519 12.928 7.903 13.106 C 7.289 13.283 6.635 13.618 5.942 14.111 L 6.516 12.388 L 6.516 24.392 L 3.85 24.392 Z M 29.421 24.57 C 28.118 24.57 27.047 24.235 26.208 23.565 C 25.37 22.895 24.95 21.899 24.95 20.578 C 24.95 19.94 25.121 19.29 25.463 18.629 C 25.805 17.968 26.357 17.412 27.117 16.961 C 27.879 16.51 28.879 16.285 30.118 16.285 C 30.61 16.285 31.141 16.324 31.711 16.401 C 32.281 16.478 32.871 16.631 33.481 16.859 L 32.77 17.556 L 32.77 16.148 C 32.77 15.291 32.666 14.617 32.456 14.124 C 32.247 13.632 31.944 13.281 31.547 13.072 C 31.151 12.862 30.674 12.757 30.118 12.757 C 29.617 12.757 29.034 12.816 28.368 12.935 C 27.703 13.054 26.983 13.245 26.208 13.509 L 25.77 11.486 C 26.509 11.203 27.293 10.982 28.122 10.823 C 28.952 10.663 29.736 10.583 30.474 10.583 C 31.476 10.583 32.347 10.749 33.085 11.082 C 33.823 11.415 34.391 11.962 34.787 12.723 C 35.184 13.484 35.382 14.517 35.382 15.82 L 35.382 24.392 L 33.249 24.392 L 32.757 22.765 L 33.263 23.189 C 33.045 23.398 32.732 23.608 32.326 23.818 C 31.921 24.027 31.468 24.205 30.966 24.351 C 30.465 24.497 29.95 24.57 29.421 24.57 Z M 29.886 22.628 C 30.524 22.628 31.144 22.512 31.745 22.28 C 32.347 22.047 32.816 21.781 33.153 21.48 L 32.77 22.628 L 32.77 17.638 L 33.345 18.732 C 32.817 18.486 32.336 18.322 31.902 18.24 C 31.47 18.158 31.062 18.117 30.679 18.117 C 29.704 18.117 28.936 18.322 28.375 18.732 C 27.815 19.142 27.534 19.73 27.534 20.496 C 27.534 21.234 27.739 21.774 28.149 22.116 C 28.56 22.457 29.139 22.628 29.886 22.628 Z M 38.967 24.392 L 38.967 10.788 L 41.154 10.788 L 41.496 12.128 C 41.861 11.864 42.308 11.609 42.836 11.363 C 43.365 11.117 43.914 10.907 44.483 10.734 C 45.053 10.561 45.58 10.465 46.062 10.447 L 46.062 13.14 C 45.4 13.14 44.746 13.206 44.102 13.338 C 43.459 13.471 42.882 13.644 42.371 13.858 C 41.861 14.072 41.473 14.307 41.209 14.562 L 41.633 13.236 L 41.633 24.392 L 38.967 24.392 Z M 53.579 24.556 C 51.701 24.556 50.25 23.989 49.224 22.854 C 48.199 21.719 47.686 19.967 47.686 17.597 C 47.686 15.246 48.167 13.489 49.129 12.327 C 50.091 11.164 51.533 10.583 53.456 10.583 C 54.86 10.583 56.163 10.902 57.366 11.54 L 57.366 15.533 L 55.151 15.751 L 55.151 11.8 L 56.163 13.496 C 55.771 13.259 55.331 13.078 54.843 12.955 C 54.356 12.832 53.884 12.771 53.428 12.771 C 52.654 12.771 52.041 12.958 51.589 13.331 C 51.139 13.705 50.82 14.252 50.632 14.972 C 50.446 15.692 50.352 16.576 50.352 17.624 C 50.352 19.283 50.619 20.487 51.152 21.234 C 51.686 21.981 52.545 22.355 53.729 22.355 C 54.258 22.355 54.778 22.271 55.288 22.102 C 55.798 21.933 56.377 21.699 57.024 21.398 L 57.913 23.339 C 57.239 23.722 56.528 24.02 55.78 24.235 C 55.033 24.449 54.299 24.556 53.579 24.556 Z M 65.394 24.556 C 63.462 24.556 62.031 23.97 61.101 22.799 C 60.172 21.628 59.707 19.882 59.707 17.563 C 59.707 15.243 60.172 13.5 61.101 12.333 C 62.031 11.166 63.462 10.583 65.394 10.583 C 67.327 10.583 68.758 11.166 69.687 12.333 C 70.617 13.5 71.082 15.243 71.082 17.563 C 71.082 19.882 70.617 21.628 69.687 22.799 C 68.758 23.97 67.327 24.556 65.394 24.556 Z M 65.387 22.355 C 66.513 22.355 67.3 21.954 67.746 21.152 C 68.193 20.35 68.416 19.154 68.416 17.563 C 68.416 15.972 68.193 14.776 67.746 13.974 C 67.3 13.172 66.516 12.771 65.394 12.771 C 64.274 12.771 63.49 13.172 63.043 13.974 C 62.597 14.776 62.373 15.972 62.373 17.563 C 62.373 19.154 62.594 20.35 63.036 21.152 C 63.478 21.954 64.262 22.355 65.387 22.355 Z M 78.361 24.556 C 77.605 24.556 76.796 24.456 75.934 24.255 C 75.073 24.055 74.255 23.736 73.48 23.298 L 74.246 21.261 C 74.866 21.608 75.548 21.886 76.29 22.095 C 77.033 22.305 77.714 22.41 78.334 22.41 C 79.091 22.41 79.686 22.275 80.118 22.006 C 80.551 21.737 80.767 21.257 80.767 20.564 C 80.767 20.135 80.665 19.784 80.46 19.511 C 80.255 19.238 79.883 19.019 79.345 18.855 L 76.926 18.185 C 75.978 17.902 75.206 17.474 74.608 16.9 C 74.012 16.325 73.713 15.523 73.713 14.494 C 73.713 13.591 73.927 12.853 74.355 12.279 C 74.784 11.704 75.372 11.278 76.119 11 C 76.867 10.722 77.714 10.583 78.662 10.583 C 79.318 10.583 80.004 10.656 80.72 10.802 C 81.436 10.948 82.099 11.167 82.709 11.458 L 81.929 13.455 C 81.392 13.227 80.827 13.047 80.234 12.914 C 79.642 12.782 79.095 12.716 78.594 12.716 C 77.846 12.716 77.267 12.851 76.857 13.12 C 76.447 13.389 76.242 13.815 76.242 14.398 C 76.242 14.845 76.37 15.182 76.625 15.41 C 76.881 15.637 77.304 15.842 77.896 16.025 L 80.084 16.654 C 80.722 16.836 81.283 17.087 81.765 17.406 C 82.249 17.725 82.625 18.132 82.893 18.629 C 83.163 19.126 83.297 19.734 83.297 20.455 C 83.297 21.394 83.088 22.166 82.668 22.772 C 82.249 23.378 81.67 23.827 80.931 24.119 C 80.193 24.41 79.337 24.556 78.361 24.556 Z M 91.215 24.556 C 89.338 24.556 87.887 23.989 86.861 22.854 C 85.836 21.719 85.323 19.967 85.323 17.597 C 85.323 15.246 85.804 13.489 86.765 12.327 C 87.727 11.164 89.169 10.583 91.092 10.583 C 92.496 10.583 93.8 10.902 95.002 11.54 L 95.002 15.533 L 92.787 15.751 L 92.787 11.8 L 93.799 13.496 C 93.407 13.259 92.968 13.078 92.48 12.955 C 91.992 12.832 91.521 12.771 91.065 12.771 C 90.291 12.771 89.678 12.958 89.226 13.331 C 88.775 13.705 88.456 14.252 88.269 14.972 C 88.083 15.692 87.989 16.576 87.989 17.624 C 87.989 19.283 88.256 20.487 88.788 21.234 C 89.322 21.981 90.181 22.355 91.366 22.355 C 91.895 22.355 92.414 22.271 92.924 22.102 C 93.435 21.933 94.014 21.699 94.66 21.398 L 95.549 23.339 C 94.875 23.722 94.164 24.02 93.416 24.235 C 92.669 24.449 91.935 24.556 91.215 24.556 Z M 102.806 24.529 C 101.394 24.529 100.339 24.112 99.641 23.278 C 98.944 22.444 98.595 21.17 98.595 19.456 L 98.595 11.937 L 99.662 12.976 L 96.367 12.976 L 96.367 10.788 L 99.717 10.788 L 98.595 11.855 L 99.074 7.001 L 101.262 7.001 L 101.262 11.855 L 100.181 10.788 L 105.363 10.788 L 105.363 12.976 L 100.181 12.976 L 101.262 11.937 L 101.262 19.429 C 101.262 20.496 101.417 21.236 101.726 21.651 C 102.036 22.066 102.583 22.273 103.367 22.273 C 103.65 22.273 103.98 22.241 104.358 22.177 C 104.737 22.113 105.067 22.036 105.349 21.945 L 105.65 24.091 C 105.204 24.219 104.732 24.324 104.235 24.406 C 103.739 24.488 103.262 24.529 102.806 24.529 Z M 107.372 24.392 L 107.372 22.246 L 110.093 22.246 L 110.093 12.935 L 107.468 12.935 L 107.468 10.788 L 112.759 10.788 L 112.759 22.246 L 115.466 22.246 L 115.466 24.392 L 107.372 24.392 Z M 111.391 8.642 C 110.899 8.642 110.48 8.469 110.134 8.122 C 109.788 7.776 109.614 7.357 109.614 6.865 C 109.614 6.382 109.788 5.967 110.134 5.621 C 110.48 5.274 110.899 5.101 111.391 5.101 C 111.884 5.101 112.301 5.274 112.642 5.621 C 112.984 5.967 113.155 6.382 113.155 6.865 C 113.155 7.357 112.984 7.776 112.642 8.122 C 112.301 8.469 111.884 8.642 111.391 8.642 Z M 117.9 24.392 L 117.9 20.769 L 120.867 20.769 L 120.867 24.392 L 117.9 24.392 Z M 133.293 23.49 L 124.078 17.269 L 124.078 15.218 L 133.293 9.203 L 134.578 11.24 L 126.744 16.244 L 134.55 21.412 L 133.293 23.49 Z M 142.571 24.556 C 140.949 24.556 139.682 24.007 138.77 22.909 C 137.859 21.81 137.403 20.035 137.403 17.583 C 137.403 15.168 137.807 13.397 138.613 12.272 C 139.42 11.146 140.648 10.583 142.298 10.583 C 142.9 10.583 143.535 10.677 144.205 10.864 C 144.875 11.051 145.584 11.381 146.331 11.855 L 145.921 12.142 L 145.921 5.826 L 148.587 5.826 L 148.587 24.392 L 146.372 24.392 L 145.921 23.08 L 146.399 23.394 C 145.807 23.813 145.16 24.112 144.458 24.289 C 143.756 24.467 143.127 24.556 142.571 24.556 Z M 143.132 22.287 C 143.816 22.287 144.428 22.175 144.97 21.952 C 145.513 21.729 146.14 21.362 146.85 20.851 L 145.921 22.259 L 145.921 12.58 L 146.905 14.535 C 146.03 13.878 145.269 13.432 144.622 13.195 C 143.975 12.958 143.382 12.839 142.844 12.839 C 141.86 12.839 141.152 13.22 140.718 13.981 C 140.286 14.742 140.069 15.947 140.069 17.597 C 140.069 19.31 140.309 20.52 140.787 21.227 C 141.266 21.934 142.048 22.287 143.132 22.287 Z M 157.734 24.556 C 155.82 24.556 154.346 23.989 153.311 22.854 C 152.277 21.719 151.759 19.958 151.759 17.57 C 151.759 16.321 151.91 15.255 152.211 14.371 C 152.512 13.486 152.929 12.764 153.462 12.204 C 153.995 11.643 154.615 11.233 155.321 10.973 C 156.028 10.713 156.787 10.583 157.597 10.583 C 158.655 10.583 159.573 10.809 160.352 11.26 C 161.132 11.711 161.736 12.361 162.164 13.208 C 162.592 14.056 162.806 15.072 162.806 16.257 C 162.806 16.467 162.8 16.763 162.786 17.146 C 162.772 17.529 162.743 17.921 162.697 18.322 L 153.496 18.322 L 154.439 17.488 C 154.403 18.791 154.533 19.796 154.829 20.502 C 155.125 21.209 155.538 21.699 156.066 21.972 C 156.595 22.245 157.192 22.382 157.857 22.382 C 158.577 22.382 159.234 22.298 159.826 22.129 C 160.419 21.96 161.039 21.726 161.685 21.425 L 162.56 23.353 C 161.886 23.736 161.123 24.032 160.27 24.242 C 159.418 24.451 158.573 24.556 157.734 24.556 Z M 160.277 17.706 L 160.277 16.64 C 160.359 15.391 160.166 14.409 159.696 13.694 C 159.227 12.979 158.514 12.621 157.556 12.621 C 156.463 12.621 155.645 13.031 155.102 13.851 C 154.56 14.671 154.339 15.824 154.439 17.31 L 153.496 16.572 L 161.097 16.572 L 160.277 17.706 Z M 168.843 24.392 L 164.318 11.035 L 166.916 10.624 L 170.785 22.601 L 169.855 22.601 L 173.492 10.624 L 176.076 11.035 L 171.728 24.392 L 168.843 24.392 Z M 179.526 26.265 L 177.283 25.322 L 185.924 3.734 L 188.153 4.677 L 179.526 26.265 Z M 191.484 23.572 L 190.349 21.507 L 198.484 16.244 L 190.335 11.13 L 191.484 9.107 L 201.15 15.218 L 201.15 17.255 L 191.484 23.572 Z" style="fill: url(&quot;#color-2&quot;);"/>
  <defs>
    <linearGradient gradientUnits="userSpaceOnUse" bx:pinned="true" id="color-0">
      <stop style="stop-color: #222831;"/>
    </linearGradient>
    <linearGradient gradientUnits="userSpaceOnUse" bx:pinned="true" id="color-1">
      <stop style="stop-color: #393e46;"/>
    </linearGradient>
    <linearGradient gradientUnits="userSpaceOnUse" bx:pinned="true" id="color-2" gradientTransform="matrix(1, 0, 0, 1, -147.707696, -234.567167)">
      <stop style="stop-color: #00adb5;"/>
    </linearGradient>
    <linearGradient gradientUnits="userSpaceOnUse" bx:pinned="true" id="color-3">
      <stop style="stop-color: #eeeeee;"/>
    </linearGradient>
  </defs>
</svg>